<svg xmlns="http://www.w3.org/2000/svg" version="1.1" xmlns:xlink="http://www.w3.org/1999/xlink" xmlns:svgjs="http://svgjs.dev/svgjs" width="800" height="300" viewBox="0 0 2000 1400"><rect width="800" height="300" fill="#ffffff"></rect><g transform="matrix(0.75,0,0,0.75,249.090909090909,534.2233600459043)"><svg viewBox="0 0 396 114" data-background-color="#ffffff" preserveAspectRatio="xMidYMid meet" height="575" width="2000" xmlns="http://www.w3.org/2000/svg" xmlns:xlink="http://www.w3.org/1999/xlink"><g id="tight-bounds" transform="matrix(1,0,0,1,0.2400000000000091,0.04008569221312541)"><svg viewBox="0 0 395.52 113.91982861557376" height="113.91982861557376" width="395.52"><g><svg viewBox="0 0 582.9461687964745 167.9033364719855" height="113.91982861557376" width="395.52"><g transform="matrix(1,0,0,1,0,23.205164447285995)"><svg viewBox="0 0 395.52 121.49300757741352" height="121.49300757741352" width="395.52"><g id="textblocktransform"><svg viewBox="0 0 395.52 121.49300757741352" height="121.49300757741352" width="395.52" id="textblock"><g><svg viewBox="0 0 395.52 82.69723446893788" height="82.69723446893788" width="395.52"><g transform="matrix(1,0,0,1,0,0)"><svg width="395.52" viewBox="4.5 -30.65 149.69 31.299999999999997" height="82.69723446893788" data-palette-color="#113f67"><path d="M4.5-1.6L4.5-18.15 8.55-18.15 8.55-0.1Q8.3 0 7.8 0.13 7.3 0.25 6.7 0.25L6.7 0.25Q5.6 0.25 5.05-0.2 4.5-0.65 4.5-1.6L4.5-1.6ZM8.55-28.8L8.55-14.8 4.5-14.8 4.5-30.3Q4.75-30.4 5.28-30.53 5.8-30.65 6.4-30.65L6.4-30.65Q7.5-30.65 8.03-30.23 8.55-29.8 8.55-28.8L8.55-28.8ZM36.85-15.25L36.85-15.25 36.85-10.15 32.85-10.15 32.85-15.05Q32.85-17.85 31.27-19.15 29.7-20.45 27.05-20.45L27.05-20.45Q25.05-20.45 23.5-19.95 21.95-19.45 20.85-18.8L20.85-18.8 20.85-10.15 16.85-10.15 16.85-18.6Q16.85-19.65 17.27-20.33 17.7-21 18.75-21.65L18.75-21.65Q20.05-22.4 22.2-23.08 24.35-23.75 27.05-23.75L27.05-23.75Q31.6-23.75 34.22-21.68 36.85-19.6 36.85-15.25ZM16.85-1.55L16.85-12.9 20.85-12.9 20.85-0.1Q20.6 0 20.1 0.13 19.6 0.25 19 0.25L19 0.25Q17.95 0.25 17.4-0.18 16.85-0.6 16.85-1.55L16.85-1.55ZM32.85-1.55L32.85-12.9 36.85-12.9 36.85-0.1Q36.6 0 36.07 0.13 35.55 0.25 35 0.25L35 0.25Q33.9 0.25 33.37-0.18 32.85-0.6 32.85-1.55L32.85-1.55ZM44.4-6.05L44.4-13.2 48.4-13.2 48.4-6.3Q48.4-4.3 49.55-3.48 50.7-2.65 52.7-2.65L52.7-2.65Q53.55-2.65 54.6-2.95 55.65-3.25 56.35-3.65L56.35-3.65Q56.65-3.35 56.9-2.9 57.15-2.45 57.15-1.85L57.15-1.85Q57.15-0.75 55.85-0.05 54.55 0.65 52.25 0.65L52.25 0.65Q48.75 0.65 46.57-0.9 44.4-2.45 44.4-6.05L44.4-6.05ZM55.55-19.3L46.45-19.3 46.45-22.6 56.6-22.6Q56.75-22.4 56.9-21.95 57.05-21.5 57.05-21L57.05-21Q57.05-20.2 56.65-19.75 56.25-19.3 55.55-19.3L55.55-19.3ZM48.4-28.35L48.4-11.7 44.4-11.7 44.4-29.8Q44.65-29.9 45.17-30.03 45.7-30.15 46.3-30.15L46.3-30.15Q47.35-30.15 47.87-29.73 48.4-29.3 48.4-28.35L48.4-28.35ZM81.19-11.35L64.39-9 64.19-12.15 79.29-14.2Q79.09-16.95 77.39-18.73 75.69-20.5 72.69-20.5L72.69-20.5Q69.59-20.5 67.57-18.28 65.54-16.05 65.54-11.9L65.54-11.9 65.54-10.8Q65.89-6.8 68.17-4.73 70.44-2.65 74.39-2.65L74.39-2.65Q76.49-2.65 78.19-3.35 79.89-4.05 80.89-4.85L80.89-4.85Q81.44-4.5 81.77-4.03 82.09-3.55 82.09-2.95L82.09-2.95Q82.09-2 81.02-1.18 79.94-0.35 78.17 0.15 76.39 0.65 74.19 0.65L74.19 0.65Q70.34 0.65 67.52-0.75 64.69-2.15 63.17-4.93 61.64-7.7 61.64-11.7L61.64-11.7Q61.64-14.55 62.47-16.78 63.29-19 64.77-20.55 66.24-22.1 68.29-22.93 70.34-23.75 72.74-23.75L72.74-23.75Q75.79-23.75 78.12-22.45 80.44-21.15 81.77-18.82 83.09-16.5 83.09-13.5L83.09-13.5Q83.09-12.4 82.59-11.93 82.09-11.45 81.19-11.35L81.19-11.35ZM92.89-18.8L92.89-18.8 92.89-10.9 88.89-10.9 88.89-18.5Q88.89-19.65 89.32-20.33 89.74-21 90.74-21.65L90.74-21.65Q92.04-22.5 94.29-23.13 96.54-23.75 99.29-23.75L99.29-23.75Q103.29-23.75 103.29-21.75L103.29-21.75Q103.29-21.25 103.14-20.83 102.99-20.4 102.74-20.1L102.74-20.1Q102.24-20.2 101.44-20.3 100.64-20.4 99.84-20.4L99.84-20.4Q97.54-20.4 95.79-19.93 94.04-19.45 92.89-18.8ZM88.89-1.55L88.89-13.2 92.89-12.6 92.89-0.1Q92.64 0 92.14 0.13 91.64 0.25 91.04 0.25L91.04 0.25Q89.99 0.25 89.44-0.18 88.89-0.6 88.89-1.55L88.89-1.55ZM125.29-23.55L125.29-23.55Q126.14-23.55 126.66-23.1 127.19-22.65 127.19-21.8L127.19-21.8Q127.19-21.15 126.64-19.35 126.09-17.55 125.19-15.05 124.29-12.55 123.21-9.83 122.14-7.1 121.01-4.58 119.89-2.05 118.94-0.2L118.94-0.2Q118.69 0 118.06 0.15 117.44 0.3 116.74 0.3L116.74 0.3Q115.89 0.3 115.24 0.03 114.59-0.25 114.34-0.75L114.34-0.75Q113.79-1.75 112.91-3.68 112.04-5.6 111.04-8.05 110.04-10.5 109.01-13.13 107.99-15.75 107.14-18.18 106.29-20.6 105.74-22.45L105.74-22.45Q106.09-22.95 106.69-23.25 107.29-23.55 107.89-23.55L107.89-23.55Q108.79-23.55 109.29-23.1 109.79-22.65 110.14-21.6L110.14-21.6 113.24-12.65Q113.64-11.5 114.29-9.8 114.94-8.1 115.59-6.4 116.24-4.7 116.64-3.55L116.64-3.55 116.84-3.55Q118.84-8.6 120.59-13.53 122.34-18.45 123.59-23.15L123.59-23.15Q124.24-23.55 125.29-23.55ZM154.19-11.55L154.19-11.55Q154.19-7.85 152.79-5.1 151.39-2.35 148.84-0.85 146.29 0.65 142.84 0.65L142.84 0.65Q139.39 0.65 136.81-0.85 134.24-2.35 132.84-5.1 131.44-7.85 131.44-11.55L131.44-11.55Q131.44-15.3 132.86-18.03 134.29-20.75 136.86-22.25 139.44-23.75 142.84-23.75L142.84-23.75Q146.24-23.75 148.79-22.25 151.34-20.75 152.76-18.03 154.19-15.3 154.19-11.55ZM142.84-20.45L142.84-20.45Q139.49-20.45 137.51-18.07 135.54-15.7 135.54-11.55L135.54-11.55Q135.54-7.35 137.46-5 139.39-2.65 142.84-2.65L142.84-2.65Q146.24-2.65 148.16-5.03 150.09-7.4 150.09-11.55L150.09-11.55Q150.09-15.7 148.16-18.07 146.24-20.45 142.84-20.45Z" opacity="1" transform="matrix(1,0,0,1,0,0)" fill="#113f67" class="wordmark-text-0" data-fill-palette-color="primary" id="text-0"></path></svg></g></svg></g><g transform="matrix(1,0,0,1,113.71199999999999,102.22006679342687)"><svg viewBox="0 0 281.808 19.272940783986655" height="19.272940783986655" width="281.808"><g transform="matrix(1,0,0,1,0,0)"><svg width="281.808" viewBox="1.5 -37.6 719.32 49.2" height="19.272940783986655" data-palette-color="#87c0cd"><path d="M13.2 0.6L13.2 0.6Q9.55 0.6 6.55-0.38 3.55-1.35 1.5-2.95L1.5-2.95 3.9-6.95Q5.7-5.45 7.95-4.5 10.2-3.55 13.2-3.55L13.2-3.55Q16.8-3.55 18.9-5.05 21-6.55 21-9.1L21-9.1Q21-10.55 20.4-11.68 19.8-12.8 18.07-13.88 16.35-14.95 13-16.2L13-16.2Q9.4-17.6 7.25-19.03 5.1-20.45 4.17-22.28 3.25-24.1 3.25-26.6L3.25-26.6Q3.25-29.1 4.63-31.13 6-33.15 8.68-34.38 11.35-35.6 15.15-35.6L15.15-35.6Q18.25-35.6 20.73-34.98 23.2-34.35 25.55-33.2L25.55-33.2 23.8-29.15Q22.1-30.15 19.83-30.83 17.55-31.5 15.05-31.5L15.05-31.5Q11.75-31.5 9.85-30.2 7.95-28.9 7.95-26.85L7.95-26.85Q7.95-25.55 8.5-24.55 9.05-23.55 10.68-22.6 12.3-21.65 15.55-20.45L15.55-20.45Q19.45-19 21.73-17.4 24-15.8 24.95-13.93 25.9-12.05 25.9-9.65L25.9-9.65Q25.9-6.4 24.28-4.1 22.65-1.8 19.78-0.6 16.9 0.6 13.2 0.6ZM36.9 0L32.4 0 32.4-26 36.9-26 36.9 0ZM34.65-30.45L34.65-30.45Q33.35-30.45 32.42-31.4 31.5-32.35 31.5-33.6L31.5-33.6Q31.5-35.05 32.35-35.9 33.2-36.75 34.65-36.75L34.65-36.75Q35.95-36.75 36.87-35.83 37.8-34.9 37.8-33.6L37.8-33.6Q37.8-32.2 36.95-31.33 36.1-30.45 34.65-30.45ZM49.4 0L44.9 0 44.9-26 49.25-26 49.25-21.65Q50.65-23.75 52.8-25.18 54.95-26.6 57.7-26.6L57.7-26.6Q60.8-26.6 62.77-25.1 64.75-23.6 65.55-21.1L65.55-21.1Q67.09-23.4 69.22-25 71.34-26.6 74.5-26.6L74.5-26.6Q78.75-26.6 80.82-23.93 82.9-21.25 82.9-16.95L82.9-16.95 82.9 0 78.4 0 78.4-16.6Q78.4-19.3 77.15-20.98 75.9-22.65 73.7-22.65L73.7-22.65Q71.45-22.65 69.52-20.98 67.59-19.3 66.15-17.05L66.15-17.05 66.15 0 61.65 0 61.65-16.6Q61.65-19.3 60.4-20.98 59.15-22.65 56.95-22.65L56.95-22.65Q54.75-22.65 52.8-21.03 50.85-19.4 49.4-17.2L49.4-17.2 49.4 0ZM96.09 11L91.59 11 91.59-19.35Q91.59-21.05 90.77-21.78 89.94-22.5 88.64-22.5L88.64-22.5 89.59-26Q94.19-26 95.34-22.35L95.34-22.35Q95.84-23.1 96.97-24.1 98.09-25.1 99.77-25.85 101.44-26.6 103.59-26.6L103.59-26.6Q106.59-26.6 109.22-25.03 111.84-23.45 113.44-20.48 115.04-17.5 115.04-13.25L115.04-13.25Q115.04-9.1 113.44-5.98 111.84-2.85 109.27-1.13 106.69 0.6 103.69 0.6L103.69 0.6Q101.39 0.6 99.39-0.33 97.39-1.25 96.09-2.45L96.09-2.45 96.09 11ZM102.79-3.4L102.79-3.4Q106.19-3.4 108.32-6.08 110.44-8.75 110.44-13.1L110.44-13.1Q110.44-16.1 109.37-18.25 108.29-20.4 106.52-21.55 104.74-22.7 102.59-22.7L102.59-22.7Q100.44-22.7 98.72-21.63 96.99-20.55 96.09-19.3L96.09-19.3 96.09-6.5Q97.39-5.15 99.09-4.28 100.79-3.4 102.79-3.4ZM129.19 0.6L129.19 0.6Q126.89 0.6 125.04-0.28 123.19-1.15 122.12-3.1 121.04-5.05 121.04-8.15L121.04-8.15 121.04-37 125.54-37 125.54-8.6Q125.54-5.9 126.67-4.6 127.79-3.3 129.79-3.3L129.79-3.3Q130.74-3.3 131.67-3.53 132.59-3.75 133.24-4.05L133.24-4.05 134.34-0.4Q133.44 0 132.12 0.3 130.79 0.6 129.19 0.6ZM143.09 0L138.59 0 138.59-26 143.09-26 143.09 0ZM140.84-30.45L140.84-30.45Q139.54-30.45 138.61-31.4 137.69-32.35 137.69-33.6L137.69-33.6Q137.69-35.05 138.54-35.9 139.39-36.75 140.84-36.75L140.84-36.75Q142.14-36.75 143.06-35.83 143.99-34.9 143.99-33.6L143.99-33.6Q143.99-32.2 143.14-31.33 142.29-30.45 140.84-30.45ZM156.09 0L151.59 0 151.59-21.15 147.59-21.15 147.59-25.05 151.59-25.05 151.59-28.1Q151.59-32.5 154.04-35.05 156.49-37.6 160.44-37.6L160.44-37.6Q162.49-37.6 164.04-37.13 165.59-36.65 166.99-35.95L166.99-35.95 165.64-32.15Q164.59-32.7 163.39-33.15 162.19-33.6 160.74-33.6L160.74-33.6Q158.64-33.6 157.36-32.27 156.09-30.95 156.09-28.4L156.09-28.4 156.09-25.05 163.79-25.05 163.79-21.15 156.09-21.15 156.09 0ZM169.63 11.6L169.63 11.6Q168.13 11.6 167.01 11.3 165.88 11 165.23 10.6L165.23 10.6 166.23 6.85Q166.83 7.2 167.73 7.45 168.63 7.7 169.73 7.7L169.73 7.7Q171.83 7.7 173.48 6.35 175.13 5 176.63 1.05L176.63 1.05 177.78-1.95 175.38-1.95 165.23-24.8 169.23-26.6 178.93-4.95 186.48-26.4 190.63-24.8 181.08 1.3Q179.63 5.3 177.93 7.55 176.23 9.8 174.18 10.7 172.13 11.6 169.63 11.6ZM215.38 0L210.63 0 210.63-35 215.38-35 215.38-20.05 232.63-20.05 232.63-35 237.38-35 237.38 0 232.63 0 232.63-15.95 215.38-15.95 215.38 0ZM250.38 0L245.88 0 245.88-26 250.38-26 250.38 0ZM248.13-30.45L248.13-30.45Q246.83-30.45 245.9-31.4 244.98-32.35 244.98-33.6L244.98-33.6Q244.98-35.05 245.83-35.9 246.68-36.75 248.13-36.75L248.13-36.75Q249.43-36.75 250.35-35.83 251.28-34.9 251.28-33.6L251.28-33.6Q251.28-32.2 250.43-31.33 249.58-30.45 248.13-30.45ZM262.87 0L258.37 0 258.37-26 262.72-26 262.72-20.35Q263.37-22 264.47-23.43 265.57-24.85 267.22-25.73 268.87-26.6 271.07-26.6L271.07-26.6Q271.82-26.6 272.57-26.53 273.32-26.45 273.82-26.3L273.82-26.3 272.47-21.65Q271.52-22.05 270.22-22.05L270.22-22.05Q268.37-22.05 266.7-21 265.02-19.95 263.95-17.75 262.87-15.55 262.87-12.15L262.87-12.15 262.87 0ZM282.82 0L278.32 0 278.32-26 282.82-26 282.82 0ZM280.57-30.45L280.57-30.45Q279.27-30.45 278.35-31.4 277.42-32.35 277.42-33.6L277.42-33.6Q277.42-35.05 278.27-35.9 279.12-36.75 280.57-36.75L280.57-36.75Q281.87-36.75 282.8-35.83 283.72-34.9 283.72-33.6L283.72-33.6Q283.72-32.2 282.87-31.33 282.02-30.45 280.57-30.45ZM295.32 0L290.82 0 290.82-26 295.17-26 295.17-21.65Q296.57-23.75 298.74-25.18 300.92-26.6 303.92-26.6L303.92-26.6Q308.32-26.6 310.49-23.95 312.67-21.3 312.67-16.95L312.67-16.95 312.67 0 308.17 0 308.17-16.45Q308.17-19.25 306.84-20.95 305.52-22.65 303.17-22.65L303.17-22.65Q300.87-22.65 298.82-21.03 296.77-19.4 295.32-17.2L295.32-17.2 295.32 0ZM329.97 11.6L329.97 11.6Q327.67 11.6 325.49 11.05 323.32 10.5 321.62 9.4L321.62 9.4 323.27 5.5Q324.47 6.45 326.07 7.08 327.67 7.7 329.97 7.7L329.97 7.7Q333.52 7.7 335.54 5.83 337.57 3.95 337.57-0.15L337.57-0.15 337.57-3.35Q336.57-2.15 334.69-1.07 332.82 0 330.22 0L330.22 0Q327.27 0 324.62-1.53 321.97-3.05 320.32-6 318.67-8.95 318.67-13.1L318.67-13.1Q318.67-17 320.29-20.05 321.92-23.1 324.67-24.85 327.42-26.6 330.72-26.6L330.72-26.6Q332.92-26.6 334.72-25.85 336.52-25.1 337.82-24L337.82-24 337.82-26 341.92-26 341.92-0.6Q341.92 3.7 340.42 6.4 338.92 9.1 336.24 10.35 333.57 11.6 329.97 11.6ZM331.22-4L331.22-4Q333.22-4 334.82-4.9 336.42-5.8 337.42-7L337.42-7 337.42-20.6Q336.32-21.4 334.77-22.05 333.22-22.7 331.17-22.7L331.17-22.7Q329.12-22.7 327.32-21.6 325.52-20.5 324.39-18.43 323.27-16.35 323.27-13.35L323.27-13.35Q323.27-10.5 324.39-8.4 325.52-6.3 327.32-5.15 329.12-4 331.22-4ZM349.61 8L349.61 8 347.16 6.6Q349.16 4.05 350.39 1.45 351.61-1.15 352.26-4.5L352.26-4.5 356.66-3.25Q356.16 0.55 354.29 3.4 352.41 6.25 349.61 8ZM408.56-1.25L404.21 0.5 400.31-9.5 384.11-9.5 380.21 0.4 376.16-1.25 389.86-35 395.06-35 408.56-1.25ZM392.21-30.3L385.61-13.5 398.76-13.5 392.21-30.3ZM417.56 0L413.06 0 413.06-26 417.41-26 417.41-21.65Q418.81-23.75 420.96-25.18 423.11-26.6 425.86-26.6L425.86-26.6Q428.96-26.6 430.93-25.1 432.91-23.6 433.71-21.1L433.71-21.1Q435.26-23.4 437.38-25 439.51-26.6 442.66-26.6L442.66-26.6Q446.91-26.6 448.98-23.93 451.06-21.25 451.06-16.95L451.06-16.95 451.06 0 446.56 0 446.56-16.6Q446.56-19.3 445.31-20.98 444.06-22.65 441.86-22.65L441.86-22.65Q439.61-22.65 437.68-20.98 435.76-19.3 434.31-17.05L434.31-17.05 434.31 0 429.81 0 429.81-16.6Q429.81-19.3 428.56-20.98 427.31-22.65 425.11-22.65L425.11-22.65Q422.91-22.65 420.96-21.03 419.01-19.4 417.56-17.2L417.56-17.2 417.56 0ZM464.25 11L459.75 11 459.75-19.35Q459.75-21.05 458.93-21.78 458.1-22.5 456.8-22.5L456.8-22.5 457.75-26Q462.35-26 463.5-22.35L463.5-22.35Q464-23.1 465.13-24.1 466.25-25.1 467.93-25.85 469.6-26.6 471.75-26.6L471.75-26.6Q474.75-26.6 477.38-25.03 480-23.45 481.6-20.48 483.2-17.5 483.2-13.25L483.2-13.25Q483.2-9.1 481.6-5.98 480-2.85 477.43-1.13 474.85 0.6 471.85 0.6L471.85 0.6Q469.55 0.6 467.55-0.33 465.55-1.25 464.25-2.45L464.25-2.45 464.25 11ZM470.95-3.4L470.95-3.4Q474.35-3.4 476.48-6.08 478.6-8.75 478.6-13.1L478.6-13.1Q478.6-16.1 477.53-18.25 476.45-20.4 474.68-21.55 472.9-22.7 470.75-22.7L470.75-22.7Q468.6-22.7 466.88-21.63 465.15-20.55 464.25-19.3L464.25-19.3 464.25-6.5Q465.55-5.15 467.25-4.28 468.95-3.4 470.95-3.4ZM497.35 0.6L497.35 0.6Q495.05 0.6 493.2-0.28 491.35-1.15 490.28-3.1 489.2-5.05 489.2-8.15L489.2-8.15 489.2-37 493.7-37 493.7-8.6Q493.7-5.9 494.83-4.6 495.95-3.3 497.95-3.3L497.95-3.3Q498.9-3.3 499.83-3.53 500.75-3.75 501.4-4.05L501.4-4.05 502.5-0.4Q501.6 0 500.28 0.3 498.95 0.6 497.35 0.6ZM511.25 0L506.75 0 506.75-26 511.25-26 511.25 0ZM509-30.45L509-30.45Q507.7-30.45 506.77-31.4 505.85-32.35 505.85-33.6L505.85-33.6Q505.85-35.05 506.7-35.9 507.55-36.75 509-36.75L509-36.75Q510.3-36.75 511.22-35.83 512.15-34.9 512.15-33.6L512.15-33.6Q512.15-32.2 511.3-31.33 510.45-30.45 509-30.45ZM524.25 0L519.75 0 519.75-21.15 515.75-21.15 515.75-25.05 519.75-25.05 519.75-28.1Q519.75-32.5 522.2-35.05 524.64-37.6 528.6-37.6L528.6-37.6Q530.64-37.6 532.2-37.13 533.75-36.65 535.14-35.95L535.14-35.95 533.79-32.15Q532.75-32.7 531.54-33.15 530.35-33.6 528.89-33.6L528.89-33.6Q526.79-33.6 525.52-32.27 524.25-30.95 524.25-28.4L524.25-28.4 524.25-25.05 531.95-25.05 531.95-21.15 524.25-21.15 524.25 0ZM537.79 11.6L537.79 11.6Q536.29 11.6 535.17 11.3 534.04 11 533.39 10.6L533.39 10.6 534.39 6.85Q534.99 7.2 535.89 7.45 536.79 7.7 537.89 7.7L537.89 7.7Q539.99 7.7 541.64 6.35 543.29 5 544.79 1.05L544.79 1.05 545.94-1.95 543.54-1.95 533.39-24.8 537.39-26.6 547.09-4.95 554.64-26.4 558.79-24.8 549.24 1.3Q547.79 5.3 546.09 7.55 544.39 9.8 542.34 10.7 540.29 11.6 537.79 11.6ZM590.29 0L585.54 0 585.54-30.8 574.79-30.8 574.79-35 601.04-35 601.04-30.8 590.29-30.8 590.29 0ZM611.23 0.6L611.23 0.6Q607.98 0.6 605.33-1.05 602.68-2.7 601.11-5.73 599.53-8.75 599.53-12.85L599.53-12.85Q599.53-16.75 601.11-19.85 602.68-22.95 605.46-24.78 608.23-26.6 611.83-26.6L611.83-26.6Q614.08-26.6 615.91-25.83 617.73-25.05 619.08-23.9L619.08-23.9 619.08-26 623.18-26 623.18-6.3Q623.18-4.4 624.11-3.83 625.03-3.25 626.13-3.25L626.13-3.25 625.18 0.25Q620.38 0.25 619.38-3.65L619.38-3.65Q618.23-2.05 616.26-0.73 614.28 0.6 611.23 0.6ZM612.23-3.4L612.23-3.4Q614.13-3.4 615.83-4.33 617.53-5.25 618.68-6.65L618.68-6.65 618.68-20.6Q617.33-21.55 615.71-22.13 614.08-22.7 612.28-22.7L612.28-22.7Q609.88-22.7 608.06-21.48 606.23-20.25 605.18-18.07 604.13-15.9 604.13-13L604.13-13Q604.13-10.2 605.18-8.03 606.23-5.85 608.08-4.63 609.93-3.4 612.23-3.4ZM640.03 0.6L640.03 0.6Q637.73 0.6 635.88-0.28 634.03-1.15 632.96-3.1 631.88-5.05 631.88-8.15L631.88-8.15 631.88-37 636.38-37 636.38-8.6Q636.38-5.9 637.51-4.6 638.63-3.3 640.63-3.3L640.63-3.3Q641.58-3.3 642.51-3.53 643.43-3.75 644.08-4.05L644.08-4.05 645.18-0.4Q644.28 0 642.96 0.3 641.63 0.6 640.03 0.6ZM659.08 0.6L659.08 0.6Q653.48 0.6 650.2-2.98 646.93-6.55 646.93-13L646.93-13Q646.93-16.9 648.4-19.98 649.88-23.05 652.53-24.83 655.18-26.6 658.68-26.6L658.68-26.6Q662.43-26.6 664.9-24.98 667.38-23.35 668.63-20.6 669.88-17.85 669.88-14.55L669.88-14.55Q669.88-12.8 669.73-11.15L669.73-11.15 651.53-11.15Q651.98-7.5 654.08-5.45 656.18-3.4 659.63-3.4L659.63-3.4Q661.88-3.4 663.68-3.88 665.48-4.35 667.13-5.1L667.13-5.1 668.18-1.25Q666.38-0.45 664.13 0.08 661.88 0.6 659.08 0.6ZM651.48-14.8L651.48-14.8 665.73-14.8Q665.73-18.6 663.83-20.65 661.93-22.7 658.58-22.7L658.58-22.7Q655.68-22.7 653.78-20.68 651.88-18.65 651.48-14.8ZM680.38 0L675.88 0 675.88-26 680.23-26 680.23-21.65Q681.63-23.75 683.8-25.18 685.98-26.6 688.98-26.6L688.98-26.6Q693.38-26.6 695.55-23.95 697.73-21.3 697.73-16.95L697.73-16.95 697.73 0 693.23 0 693.23-16.45Q693.23-19.25 691.9-20.95 690.58-22.65 688.23-22.65L688.23-22.65Q685.93-22.65 683.88-21.03 681.83-19.4 680.38-17.2L680.38-17.2 680.38 0ZM714.57 0.6L714.57 0.6Q710.82 0.6 708.65-1.88 706.47-4.35 706.47-8.95L706.47-8.95 706.47-21.15 701.97-21.15 701.97-25.05 706.57-25.05 707.52-33.25 710.97-33.25 710.97-25.05 718.17-25.05 718.17-21.15 710.97-21.15 710.97-8.6Q710.97-5.7 712.2-4.55 713.42-3.4 715.12-3.4L715.12-3.4Q716.37-3.4 717.5-3.8 718.62-4.2 719.57-4.75L719.57-4.75 720.82-1.15Q719.82-0.55 718.12 0.03 716.42 0.6 714.57 0.6Z" opacity="1" transform="matrix(1,0,0,1,0,0)" fill="#87c0cd" class="slogan-text-1" data-fill-palette-color="secondary" id="text-1"></path></svg></g></svg></g></svg></g></svg></g><g transform="matrix(1,0,0,1,415.042832324489,0)"><svg viewBox="0 0 167.9033364719855 167.9033364719855" height="167.9033364719855" width="167.9033364719855"><g data-palette-color="#87c0cd"><rect width="45.89357863567604" height="167.9033364719855" fill="#87c0cd" stroke="transparent" data-fill-palette-color="accent" x="0" fill-opacity="1"></rect><rect width="45.89357863567604" height="167.9033364719855" fill="#87c0cd" stroke="transparent" data-fill-palette-color="accent" x="55.967778823995175" fill-opacity="0.75"></rect><rect width="45.89357863567604" height="167.9033364719855" fill="#87c0cd" stroke="transparent" data-fill-palette-color="accent" x="111.93555764799035" fill-opacity="0.5"></rect></g></svg></g></svg></g><defs></defs></svg><rect width="395.52" height="113.91982861557376" fill="none" stroke="none" visibility="hidden"></rect></g></svg></g></svg>